<svg width="22" height="35" viewBox="0 0 22 35" fill="none" xmlns="http://www.w3.org/2000/svg">
<path fill-rule="evenodd" clip-rule="evenodd" d="M2.1875 8.75C2.18766 7.06612 2.67369 5.41805 3.58727 4.00354C4.50085 2.58904 5.80318 1.46819 7.33798 0.775481C8.87278 0.0827762 10.5749 -0.152357 12.24 0.0982969C13.9051 0.34895 15.4625 1.07474 16.7254 2.18858C17.9882 3.30243 18.9029 4.757 19.3596 6.37777C19.8162 7.99854 19.7956 9.71666 19.3 11.326C18.8044 12.9353 17.855 14.3674 16.5657 15.4505C15.2764 16.5336 13.7019 17.2217 12.0312 17.4322V29.5313C12.0312 29.8213 11.916 30.0995 11.7109 30.3046C11.5058 30.5098 11.2276 30.625 10.9375 30.625C10.6474 30.625 10.3692 30.5098 10.1641 30.3046C9.95898 30.0995 9.84375 29.8213 9.84375 29.5313V17.4344C7.72836 17.1679 5.78307 16.1381 4.37328 14.5386C2.9635 12.9391 2.18624 10.8821 2.1875 8.75ZM7.64094 27.5056C7.68837 27.7916 7.62032 28.0848 7.45174 28.3206C7.28316 28.5565 7.02783 28.7157 6.74187 28.7634C5.18437 29.0216 3.94188 29.4088 3.12156 29.8419C2.81978 29.986 2.54579 30.1822 2.31219 30.4216C2.25921 30.4792 2.21698 30.5459 2.1875 30.6184V30.625L2.19187 30.6425L2.22688 30.7147C2.31263 30.8417 2.41998 30.9528 2.54406 31.0428C2.905 31.3272 3.49562 31.6334 4.3225 31.9069C5.96531 32.4538 8.30375 32.8125 10.9375 32.8125C13.5712 32.8125 15.9097 32.4559 17.5525 31.9069C18.3794 31.6313 18.97 31.3272 19.3309 31.0428C19.4558 30.953 19.5639 30.8419 19.6503 30.7147L19.6831 30.6425L19.6875 30.625V30.6163C19.658 30.5437 19.6158 30.477 19.5628 30.4194C19.329 30.1808 19.055 29.9854 18.7534 29.8419C17.9309 29.4088 16.6906 29.0216 15.1331 28.7634C14.988 28.7438 14.8484 28.6952 14.7224 28.6206C14.5965 28.5459 14.4868 28.4468 14.3999 28.329C14.3129 28.2111 14.2506 28.0771 14.2164 27.9347C14.1823 27.7923 14.177 27.6446 14.2011 27.5001C14.2251 27.3557 14.2779 27.2176 14.3563 27.0939C14.4346 26.9703 14.5371 26.8636 14.6574 26.7803C14.7778 26.697 14.9137 26.6386 15.057 26.6088C15.2004 26.579 15.3482 26.5782 15.4919 26.6066C17.1762 26.8844 18.6681 27.3241 19.7728 27.9059C20.7812 28.4375 21.875 29.3125 21.875 30.625C21.875 31.5569 21.3063 32.27 20.685 32.7622C20.0506 33.2609 19.1975 33.6656 18.2438 33.9828C16.3231 34.6238 13.7397 35 10.9375 35C8.13531 35 5.55187 34.6238 3.63125 33.9828C2.6775 33.6656 1.82437 33.2609 1.19 32.7622C0.56875 32.27 0 31.5569 0 30.625C0 29.3147 1.09375 28.4375 2.10219 27.9059C3.20687 27.3241 4.69875 26.8844 6.38313 26.6066C6.66913 26.5591 6.96226 26.6272 7.19811 26.7958C7.43397 26.9643 7.59324 27.2197 7.64094 27.5056Z" fill="#D74000"/>
</svg>
