<svg width="24" height="31" viewBox="0 0 24 31" fill="none" xmlns="http://www.w3.org/2000/svg">
<path fill-rule="evenodd" clip-rule="evenodd" d="M0.283447 3.83334C0.283447 3.05979 0.590738 2.31792 1.13772 1.77094C1.6847 1.22396 2.42657 0.916672 3.20011 0.916672H20.7001C21.4737 0.916672 22.2155 1.22396 22.7625 1.77094C23.3095 2.31792 23.6168 3.05979 23.6168 3.83334V27.1667C23.6168 27.9402 23.3095 28.6821 22.7625 29.2291C22.2155 29.776 21.4737 30.0833 20.7001 30.0833H3.20011C2.42657 30.0833 1.6847 29.776 1.13772 29.2291C0.590738 28.6821 0.283447 27.9402 0.283447 27.1667V3.83334ZM20.7001 3.83334H3.20011V27.1667H20.7001V3.83334ZM6.11678 11.125C6.11678 10.7382 6.27043 10.3673 6.54392 10.0938C6.81741 9.82032 7.18834 9.66667 7.57511 9.66667H16.3251C16.7119 9.66667 17.0828 9.82032 17.3563 10.0938C17.6298 10.3673 17.7834 10.7382 17.7834 11.125C17.7834 11.5118 17.6298 11.8827 17.3563 12.1562C17.0828 12.4297 16.7119 12.5833 16.3251 12.5833H7.57511C7.18834 12.5833 6.81741 12.4297 6.54392 12.1562C6.27043 11.8827 6.11678 11.5118 6.11678 11.125ZM7.57511 16.9583C7.18834 16.9583 6.81741 17.112 6.54392 17.3855C6.27043 17.659 6.11678 18.0299 6.11678 18.4167C6.11678 18.8034 6.27043 19.1744 6.54392 19.4479C6.81741 19.7214 7.18834 19.875 7.57511 19.875H11.9501C12.3369 19.875 12.7078 19.7214 12.9813 19.4479C13.2548 19.1744 13.4084 18.8034 13.4084 18.4167C13.4084 18.0299 13.2548 17.659 12.9813 17.3855C12.7078 17.112 12.3369 16.9583 11.9501 16.9583H7.57511Z" fill="#D74000"/>
</svg>
